# xmcd
#
# Track frame offsets: 
#        150
#        20597
#        41745
#        58212
#        74952
#        92997
#        109890
#        125700
#        141062
#        159880
#        173925
#        204440
#
# Disc length: 4440 seconds
#
# Revision: 2
# Processed by: cddbd v1.5.2PL0 Copyright (c) Steve Scherf et al.
# Submitted via: ExactAudioCopy v0.95b4
#
DISCID=b811560c
DTITLE=Dierks Bentley - Modern Day Drifter
DYEAR=2005
DGENRE=Country
TTITLE0=Lot Of Leavin' Left To Do
TTITLE1=Come A Little Closer
TTITLE2=Cab Of My Truck
TTITLE3=Settle For A Slowdown
TTITLE4=Domestic, Light And Cold
TTITLE5=Good Things Happen
TTITLE6=Easy Street
TTITLE7=So So Long
TTITLE8=Modern Day Drifter
TTITLE9=Good Man Like Me 
TTITLE10=Gonna Get There Someday
TTITLE11=Data
EXTD=YEAR: 2005 ID3G: 2
EXTT0=
EXTT1=
EXTT2=
EXTT3=
EXTT4=
EXTT5=
EXTT6=
EXTT7=
EXTT8=
EXTT9=
EXTT10=
EXTT11=
PLAYORDER=
